<?xml version="1.0" encoding="UTF-8"?>
<svg version="1.1" xmlns="http://www.w3.org/2000/svg" width="1024" height="1024">
<path d="M0 0 C337.92 0 675.84 0 1024 0 C1024 337.92 1024 675.84 1024 1024 C686.08 1024 348.16 1024 0 1024 C0 686.08 0 348.16 0 0 Z " fill="#000000" transform="translate(0,0)"/>
<path d="M0 0 C1.78186707 0.60722397 1.78186707 0.60722397 3.59973145 1.22671509 C6.80348237 2.32007146 10.00477497 3.42012578 13.20512009 4.52338028 C16.53597451 5.6698122 19.86980161 6.80753162 23.20336914 7.94604492 C28.54985504 9.77310877 33.89469721 11.60489702 39.23828125 13.44042969 C45.84402803 15.70926089 52.45401945 17.96544306 59.06640625 20.21484375 C84.78985957 28.97042429 84.78985957 28.97042429 94.38665771 32.3526001 C108.63493945 37.37084662 122.95391869 42.17993325 137.26806641 47.00610352 C145.18496811 49.67544112 153.10026664 52.34952767 161.015625 55.0234375 C161.79304424 55.28602985 162.57046349 55.54862221 163.37144089 55.81917191 C189.87162672 64.77078141 216.35591318 73.77018003 242.75390625 83.01953125 C242.92470388 90.5639664 242.3399364 97.99763276 241.67936325 105.50662231 C241.40188984 108.66355755 241.13335674 111.82123722 240.86427498 114.97889709 C240.71955771 116.67695894 240.57444256 118.37498692 240.42895317 120.07298279 C239.08479832 135.7880139 237.84754789 151.51208456 236.59179688 167.234375 C236.28129136 171.11992772 235.96901727 175.00533244 235.65527344 178.890625 C235.26658443 183.70412355 234.88089429 188.51785406 234.49724197 193.33175659 C234.35394857 195.12393208 234.20968653 196.91603046 234.06431198 198.70803833 C233.24229112 208.852083 232.57235751 218.98705308 232.09517384 229.15338516 C231.81677957 235.01501361 231.42088057 240.8501983 230.8515625 246.69140625 C230.68295994 248.51163143 230.51442395 250.33186277 230.34594727 252.15209961 C230.25950958 253.06893524 230.1730719 253.98577087 230.08401489 254.9303894 C228.73268461 269.2670652 227.54697458 283.57565845 226.81640625 297.95703125 C225.23117413 326.98821101 219.0925375 355.52589761 209.75390625 383.01953125 C209.43969727 383.95748535 209.12548828 384.89543945 208.80175781 385.86181641 C194.03751567 429.61857082 170.9389969 469.32933003 141.75390625 505.01953125 C141.07070313 505.87675781 140.3875 506.73398437 139.68359375 507.6171875 C134.19330327 514.45545252 128.36049417 520.89558984 122.3671875 527.28857422 C120.69251162 529.08540412 119.03422584 530.89626961 117.37890625 532.7109375 C112.30118499 538.2629112 107.28998593 543.69644299 101.5 548.5234375 C99.70447492 550.06188516 98.08171613 551.69246852 96.44140625 553.39453125 C92.71790643 557.18588528 88.6257216 560.45452432 84.48828125 563.78125 C82.12721547 565.71395099 79.87273333 567.70399275 77.62890625 569.76953125 C70.70963479 575.97724642 63.18231786 581.44395156 55.75390625 587.01953125 C54.99223145 587.59541992 54.23055664 588.17130859 53.44580078 588.76464844 C35.5483448 602.28314063 16.85950437 614.38961206 -2.62158203 625.50732422 C-4.47585443 626.5757301 -6.31131005 627.67711445 -8.13232422 628.80126953 C-15.34617481 633.09839013 -15.34617481 633.09839013 -19.27734375 632.75390625 C-20.25703125 632.1815625 -21.23671875 631.60921875 -22.24609375 631.01953125 C-22.98988281 630.62958984 -23.73367188 630.23964844 -24.5 629.83789062 C-27.28304925 628.3708081 -30.01440623 626.83010305 -32.74609375 625.26953125 C-33.75567139 624.69460938 -34.76524902 624.1196875 -35.80541992 623.52734375 C-57.74431338 610.91772549 -78.35800703 596.63816457 -98.24609375 581.01953125 C-99.09171875 580.35695313 -99.93734375 579.694375 -100.80859375 579.01171875 C-111.47029967 570.57120157 -121.73497102 561.71606643 -131.69287109 552.45947266 C-133.33659757 550.93562815 -134.98779359 549.42021167 -136.640625 547.90625 C-144.21235253 540.96460222 -151.6079406 534.02507901 -158.3125 526.23046875 C-160.49205356 523.73829235 -162.74382655 521.32114457 -164.99609375 518.89453125 C-170.77703859 512.5398385 -176.03376543 505.84370407 -181.24609375 499.01953125 C-181.83084473 498.25930664 -182.4155957 497.49908203 -183.01806641 496.71582031 C-196.1771643 479.57982686 -207.69422568 461.86493401 -218.24609375 443.01953125 C-218.66213867 442.28605469 -219.07818359 441.55257813 -219.50683594 440.796875 C-237.99962951 408.0055297 -251.2026435 370.56755616 -256.82080078 333.35424805 C-257.13599873 331.00665298 -257.13599873 331.00665298 -258.24609375 329.01953125 C-258.52721688 326.50971227 -258.75385982 324.01515411 -258.94628906 321.49804688 C-259.01232079 320.67904907 -259.07835251 319.86005127 -259.14638519 319.01623535 C-259.37624253 316.15304943 -259.60008647 313.28942069 -259.82421875 310.42578125 C-259.99416247 308.29436054 -260.16453036 306.16297362 -260.33526611 304.03161621 C-260.68173417 299.70030042 -261.02675105 295.36887386 -261.3701055 291.03731012 C-262.22998531 280.19206806 -263.10396765 269.34797386 -263.97851562 258.50390625 C-265.47200212 239.97956033 -266.95884845 221.45468962 -268.44150543 202.92947388 C-269.39914945 190.96511481 -270.35915407 179.0009499 -271.3221004 167.03701639 C-272.00831204 158.50876822 -272.69180007 149.98030435 -273.37328076 141.45167685 C-273.77719552 136.39771717 -274.18230176 131.34385987 -274.59041595 126.29023743 C-274.97113462 121.57526856 -275.3484785 116.86004164 -275.72324562 112.1445961 C-275.86067611 110.42279815 -275.99931968 108.70109651 -276.13929558 106.97950363 C-277.43816472 90.98883434 -277.43816472 90.98883434 -277.24609375 83.01953125 C-276.48055176 82.7678418 -275.71500977 82.51615234 -274.92626953 82.25683594 C-271.40679261 81.09766633 -267.88894237 79.93363261 -264.37109375 78.76953125 C-263.16710937 78.37378906 -261.963125 77.97804688 -260.72265625 77.5703125 C-259.53671875 77.17714844 -258.35078125 76.78398437 -257.12890625 76.37890625 C-256.05012207 76.02280273 -254.97133789 75.66669922 -253.85986328 75.29980469 C-251.05935596 74.3076509 -248.32792585 73.25458068 -245.57885742 72.13427734 C-239.80661519 69.8033832 -233.93870062 67.80599577 -228.0390625 65.82421875 C-226.88938995 65.43545059 -225.73971741 65.04668243 -224.5552063 64.64613342 C-222.11114873 63.81994078 -219.66668072 62.99496143 -217.22183228 62.17111206 C-211.47040233 60.23296454 -205.72142107 58.2875887 -199.97231865 56.34255028 C-198.09157318 55.70635274 -196.2107115 55.07049879 -194.32984924 54.43464661 C-186.06225567 51.63852768 -177.8038445 48.8184384 -169.55859375 45.95703125 C-156.22456197 41.33522982 -142.86006492 36.80387541 -129.49609375 32.26953125 C-114.15304056 27.0635577 -98.81084761 21.85531334 -83.47885132 16.61685181 C-81.01557437 15.77617963 -78.5514738 14.93796389 -76.0871582 14.1003418 C-68.2989914 11.45014666 -60.52215655 8.77307322 -52.76699829 6.02755737 C-48.98694074 4.69106431 -45.20260414 3.36693906 -41.41784668 2.04382324 C-39.61675065 1.41027551 -37.81776574 0.77068885 -36.02111816 0.12463379 C-33.53740587 -0.76815025 -31.04719889 -1.63995442 -28.5546875 -2.5078125 C-27.4668824 -2.90814949 -27.4668824 -2.90814949 -26.35710144 -3.3165741 C-16.96242492 -6.52834548 -9.00228096 -3.12008113 0 0 Z " fill="#010101" transform="translate(529.24609375,197.98046875)"/>
<path d="M0 0 C1.78186707 0.60722397 1.78186707 0.60722397 3.59973145 1.22671509 C6.80348237 2.32007146 10.00477497 3.42012578 13.20512009 4.52338028 C16.53597451 5.6698122 19.86980161 6.80753162 23.20336914 7.94604492 C28.54985504 9.77310877 33.89469721 11.60489702 39.23828125 13.44042969 C45.84402803 15.70926089 52.45401945 17.96544306 59.06640625 20.21484375 C84.78985957 28.97042429 84.78985957 28.97042429 94.38665771 32.3526001 C108.63493945 37.37084662 122.95391869 42.17993325 137.26806641 47.00610352 C145.18496811 49.67544112 153.10026664 52.34952767 161.015625 55.0234375 C161.79304424 55.28602985 162.57046349 55.54862221 163.37144089 55.81917191 C189.87162672 64.77078141 216.35591318 73.77018003 242.75390625 83.01953125 C242.92470388 90.5639664 242.3399364 97.99763276 241.67936325 105.50662231 C241.40188984 108.66355755 241.13335674 111.82123722 240.86427498 114.97889709 C240.71955771 116.67695894 240.57444256 118.37498692 240.42895317 120.07298279 C239.08479832 135.7880139 237.84754789 151.51208456 236.59179688 167.234375 C236.28129136 171.11992772 235.96901727 175.00533244 235.65527344 178.890625 C235.26658443 183.70412355 234.88089429 188.51785406 234.49724197 193.33175659 C234.35394857 195.12393208 234.20968653 196.91603046 234.06431198 198.70803833 C233.24229112 208.852083 232.57235751 218.98705308 232.09517384 229.15338516 C231.81677957 235.01501361 231.42088057 240.8501983 230.8515625 246.69140625 C230.68295994 248.51163143 230.51442395 250.33186277 230.34594727 252.15209961 C230.25950958 253.06893524 230.1730719 253.98577087 230.08401489 254.9303894 C228.73268461 269.2670652 227.54697458 283.57565845 226.81640625 297.95703125 C225.23117413 326.98821101 219.0925375 355.52589761 209.75390625 383.01953125 C209.43969727 383.95748535 209.12548828 384.89543945 208.80175781 385.86181641 C194.03751567 429.61857082 170.9389969 469.32933003 141.75390625 505.01953125 C141.07070313 505.87675781 140.3875 506.73398437 139.68359375 507.6171875 C134.19330327 514.45545252 128.36049417 520.89558984 122.3671875 527.28857422 C120.69251162 529.08540412 119.03422584 530.89626961 117.37890625 532.7109375 C112.30118499 538.2629112 107.28998593 543.69644299 101.5 548.5234375 C99.70447492 550.06188516 98.08171613 551.69246852 96.44140625 553.39453125 C92.71790643 557.18588528 88.6257216 560.45452432 84.48828125 563.78125 C82.12721547 565.71395099 79.87273333 567.70399275 77.62890625 569.76953125 C70.70963479 575.97724642 63.18231786 581.44395156 55.75390625 587.01953125 C54.99223145 587.59541992 54.23055664 588.17130859 53.44580078 588.76464844 C35.5483448 602.28314063 16.85950437 614.38961206 -2.62158203 625.50732422 C-4.47585443 626.5757301 -6.31131005 627.67711445 -8.13232422 628.80126953 C-15.34617481 633.09839013 -15.34617481 633.09839013 -19.27734375 632.75390625 C-20.25703125 632.1815625 -21.23671875 631.60921875 -22.24609375 631.01953125 C-22.98988281 630.62958984 -23.73367188 630.23964844 -24.5 629.83789062 C-27.28304925 628.3708081 -30.01440623 626.83010305 -32.74609375 625.26953125 C-33.75567139 624.69460938 -34.76524902 624.1196875 -35.80541992 623.52734375 C-57.74431338 610.91772549 -78.35800703 596.63816457 -98.24609375 581.01953125 C-99.09171875 580.35695313 -99.93734375 579.694375 -100.80859375 579.01171875 C-111.47029967 570.57120157 -121.73497102 561.71606643 -131.69287109 552.45947266 C-133.33659757 550.93562815 -134.98779359 549.42021167 -136.640625 547.90625 C-144.21235253 540.96460222 -151.6079406 534.02507901 -158.3125 526.23046875 C-160.49205356 523.73829235 -162.74382655 521.32114457 -164.99609375 518.89453125 C-170.77703859 512.5398385 -176.03376543 505.84370407 -181.24609375 499.01953125 C-181.83084473 498.25930664 -182.4155957 497.49908203 -183.01806641 496.71582031 C-196.1771643 479.57982686 -207.69422568 461.86493401 -218.24609375 443.01953125 C-218.66213867 442.28605469 -219.07818359 441.55257813 -219.50683594 440.796875 C-237.99962951 408.0055297 -251.2026435 370.56755616 -256.82080078 333.35424805 C-257.13599873 331.00665298 -257.13599873 331.00665298 -258.24609375 329.01953125 C-258.52721688 326.50971227 -258.75385982 324.01515411 -258.94628906 321.49804688 C-259.01232079 320.67904907 -259.07835251 319.86005127 -259.14638519 319.01623535 C-259.37624253 316.15304943 -259.60008647 313.28942069 -259.82421875 310.42578125 C-259.99416247 308.29436054 -260.16453036 306.16297362 -260.33526611 304.03161621 C-260.68173417 299.70030042 -261.02675105 295.36887386 -261.3701055 291.03731012 C-262.22998531 280.19206806 -263.10396765 269.34797386 -263.97851562 258.50390625 C-265.47200212 239.97956033 -266.95884845 221.45468962 -268.44150543 202.92947388 C-269.39914945 190.96511481 -270.35915407 179.0009499 -271.3221004 167.03701639 C-272.00831204 158.50876822 -272.69180007 149.98030435 -273.37328076 141.45167685 C-273.77719552 136.39771717 -274.18230176 131.34385987 -274.59041595 126.29023743 C-274.97113462 121.57526856 -275.3484785 116.86004164 -275.72324562 112.1445961 C-275.86067611 110.42279815 -275.99931968 108.70109651 -276.13929558 106.97950363 C-277.43816472 90.98883434 -277.43816472 90.98883434 -277.24609375 83.01953125 C-276.48055176 82.7678418 -275.71500977 82.51615234 -274.92626953 82.25683594 C-271.40679261 81.09766633 -267.88894237 79.93363261 -264.37109375 78.76953125 C-263.16710937 78.37378906 -261.963125 77.97804688 -260.72265625 77.5703125 C-259.53671875 77.17714844 -258.35078125 76.78398437 -257.12890625 76.37890625 C-256.05012207 76.02280273 -254.97133789 75.66669922 -253.85986328 75.29980469 C-251.05935596 74.3076509 -248.32792585 73.25458068 -245.57885742 72.13427734 C-239.80661519 69.8033832 -233.93870062 67.80599577 -228.0390625 65.82421875 C-226.88938995 65.43545059 -225.73971741 65.04668243 -224.5552063 64.64613342 C-222.11114873 63.81994078 -219.66668072 62.99496143 -217.22183228 62.17111206 C-211.47040233 60.23296454 -205.72142107 58.2875887 -199.97231865 56.34255028 C-198.09157318 55.70635274 -196.2107115 55.07049879 -194.32984924 54.43464661 C-186.06225567 51.63852768 -177.8038445 48.8184384 -169.55859375 45.95703125 C-156.22456197 41.33522982 -142.86006492 36.80387541 -129.49609375 32.26953125 C-114.15304056 27.0635577 -98.81084761 21.85531334 -83.47885132 16.61685181 C-81.01557437 15.77617963 -78.5514738 14.93796389 -76.0871582 14.1003418 C-68.2989914 11.45014666 -60.52215655 8.77307322 -52.76699829 6.02755737 C-48.98694074 4.69106431 -45.20260414 3.36693906 -41.41784668 2.04382324 C-39.61675065 1.41027551 -37.81776574 0.77068885 -36.02111816 0.12463379 C-33.53740587 -0.76815025 -31.04719889 -1.63995442 -28.5546875 -2.5078125 C-27.4668824 -2.90814949 -27.4668824 -2.90814949 -26.35710144 -3.3165741 C-16.96242492 -6.52834548 -9.00228096 -3.12008113 0 0 Z M-29.32421875 29.58984375 C-30.11083893 29.86226395 -30.89745911 30.13468414 -31.70791626 30.4153595 C-33.41195644 31.00653784 -35.11455912 31.60187258 -36.81585693 32.20089722 C-41.44001938 33.82893136 -46.07448682 35.4272592 -50.70703125 37.03125 C-51.66517731 37.36405472 -52.62332336 37.69685944 -53.61050415 38.03974915 C-62.55660841 41.14250043 -71.53908394 44.1299891 -80.52981567 47.10040283 C-96.29595995 52.31239739 -111.99948948 57.6839394 -127.6668396 63.18539429 C-146.02710742 69.63089523 -164.44914925 75.88965544 -182.8840332 82.11816406 C-183.98063263 82.48913208 -185.07723206 82.8601001 -186.20706177 83.24230957 C-188.25659844 83.93550016 -190.30651833 84.62755924 -192.35690308 85.3182373 C-197.04154924 86.90272668 -201.69010808 88.54605772 -206.31260681 90.30297852 C-209.79962348 91.59527136 -213.33427571 92.74283061 -216.8671875 93.90234375 C-218.47723887 94.43481924 -220.08726419 94.96737353 -221.69726562 95.5 C-224.20755747 96.32843835 -226.71816287 97.15590289 -229.22924805 97.98193359 C-231.6719238 98.78615143 -234.11337195 99.59400796 -236.5546875 100.40234375 C-237.31188583 100.65025665 -238.06908417 100.89816956 -238.84922791 101.15359497 C-242.3198518 102.09715937 -242.3198518 102.09715937 -245.24609375 104.01953125 C-245.67943786 111.90539623 -245.0759889 119.79883271 -244.4074707 127.65380859 C-244.31787582 128.75383776 -244.22828094 129.85386692 -244.13597107 130.9872303 C-243.83986927 134.61035546 -243.53704189 138.23288665 -243.234375 141.85546875 C-243.02310394 144.43009316 -242.81235566 147.00476052 -242.60209656 149.57946777 C-242.15620462 155.03135299 -241.70782759 160.48302355 -241.25708008 165.93450928 C-240.14938572 179.33496055 -239.05625438 192.73660202 -237.96746969 206.13860178 C-237.85363291 207.53970488 -237.73974025 208.94080344 -237.62579203 210.34189749 C-236.19067442 227.9896368 -234.78990001 245.63887266 -233.5390625 263.30078125 C-233.45025031 264.55472624 -233.45025031 264.55472624 -233.35964394 265.83400345 C-232.83410293 273.2816443 -232.32222414 280.7301372 -231.82650089 288.17982101 C-230.68225777 306.17084241 -230.68225777 306.17084241 -228.24609375 324.01953125 C-228.07142578 325.06254395 -227.89675781 326.10555664 -227.71679688 327.18017578 C-225.20300056 341.79553067 -221.98675236 355.96817712 -217.24609375 370.01953125 C-216.93188477 370.96586426 -216.61767578 371.91219727 -216.29394531 372.88720703 C-201.90764697 415.83023796 -179.60627795 456.13654977 -149.73364258 490.26074219 C-148.61779554 491.58005321 -147.53420675 492.92675965 -146.4675293 494.28613281 C-140.11387348 502.32865933 -133.03494363 509.50272723 -125.76196289 516.70947266 C-123.67857631 518.77450449 -121.6034021 520.84752521 -119.52929688 522.921875 C-118.18406551 524.26219241 -116.83837798 525.60205216 -115.4921875 526.94140625 C-114.88362411 527.54885681 -114.27506073 528.15630737 -113.64805603 528.78216553 C-109.33504153 533.04862018 -104.83932455 537.0583058 -100.24609375 541.01953125 C-99.19783029 541.94504434 -98.1506878 542.87183135 -97.10546875 543.80078125 C-87.25321166 552.45724572 -76.82690557 560.28072549 -66.24609375 568.01953125 C-65.16521484 568.81641357 -65.16521484 568.81641357 -64.0625 569.62939453 C-52.73018785 577.95992929 -40.87722531 585.33103552 -28.76904297 592.47998047 C-27.13673056 593.47604802 -25.53085768 594.51739914 -23.96142578 595.60986328 C-23.27290527 596.08665527 -22.58438477 596.56344727 -21.875 597.0546875 C-21.28920166 597.48273682 -20.70340332 597.91078613 -20.09985352 598.35180664 C-18.16712921 599.2527031 -18.16712921 599.2527031 -15.82910156 598.32177734 C-13.24603922 597.01950376 -10.76354792 595.6470628 -8.2890625 594.1484375 C-6.87898926 593.29499756 -6.87898926 593.29499756 -5.44042969 592.42431641 C-4.44817383 591.8163623 -3.45591797 591.2084082 -2.43359375 590.58203125 C-1.40911133 589.95603027 -0.38462891 589.3300293 0.67089844 588.68505859 C9.23850483 583.4111374 17.57028492 577.86840649 25.75390625 572.01953125 C27.22150391 570.97732422 27.22150391 570.97732422 28.71875 569.9140625 C43.22860758 559.48445182 57.04009291 548.32584575 70.2421875 536.28515625 C71.62715791 535.03588279 73.0186728 533.79332928 74.43676758 532.58178711 C79.99929856 527.81481343 85.20625612 522.72037618 90.37231445 517.53149414 C91.81415846 516.0842874 93.26127741 514.64251099 94.70898438 513.20117188 C99.93627183 507.97802484 104.97774041 502.65901832 109.75390625 497.01953125 C110.66643656 495.96334282 111.57918451 494.90734237 112.4921875 493.8515625 C118.82509711 486.42312679 124.95730729 478.87624552 130.75390625 471.01953125 C131.26791992 470.32569336 131.78193359 469.63185547 132.31152344 468.91699219 C152.60465826 441.31209585 168.38091517 410.9948957 179.78735352 378.71728516 C180.42561499 376.93582789 181.08464865 375.16166066 181.76538086 373.39599609 C184.64097613 365.87286941 186.5331211 358.24098593 188.31640625 350.39453125 C188.60708984 349.15574219 188.89777344 347.91695312 189.19726562 346.640625 C192.56974534 332.01900153 195.04853762 317.56410983 196.12890625 302.58203125 C196.24524926 301.06268551 196.36239276 299.54340092 196.48022461 298.02416992 C196.8306092 293.47221485 197.16916413 288.91943639 197.50592041 284.36645508 C197.78284557 280.62895365 198.06175592 276.89160249 198.34130859 273.15429688 C198.39311028 272.46172067 198.44491196 271.76914446 198.49828339 271.05558109 C198.76992438 267.42587609 199.04215355 263.79621595 199.31512451 260.16661072 C199.39759304 259.07000673 199.39759304 259.07000673 199.4817276 257.95124912 C199.5933828 256.46674123 199.70507217 254.9822359 199.81679535 253.49773312 C200.14683986 249.10703003 200.47285786 244.71605074 200.79578304 240.32481861 C202.64551296 215.21504959 202.64551296 215.21504959 204.06484985 203.39128113 C205.07837275 194.68873059 205.51512688 185.94387341 206.01596069 177.19973755 C207.03237761 159.4998686 208.24054077 141.83132639 209.83959961 124.17431641 C209.9011322 123.48104752 209.96266479 122.78777863 210.02606201 122.07350159 C210.18909607 120.2434148 210.35736351 118.41379622 210.52612305 116.58422852 C210.79423149 112.38846072 210.8012066 108.22188187 210.75390625 104.01953125 C185.11061072 94.97190953 159.39277057 86.15415175 133.62890625 77.45703125 C132.89519176 77.20932983 132.16147728 76.96162842 131.40552902 76.7064209 C125.56791449 74.73568611 119.73022724 72.76516657 113.89238548 70.79510498 C101.27630016 66.5374774 88.66732739 62.2593575 76.06640625 57.95703125 C75.2749823 57.68720428 74.48355835 57.41737732 73.66815186 57.13937378 C66.7644204 54.7851418 59.8652086 52.42138672 52.99316406 49.97599792 C41.49774969 45.88699261 29.94222456 41.97553434 18.37480831 38.09553814 C15.1232943 37.00486689 11.87311199 35.91054443 8.62573242 34.80761719 C4.82416847 33.51653838 1.01781072 32.24018402 -2.7890625 30.96484375 C-3.95157028 30.56806427 -5.11407806 30.17128479 -6.31181335 29.76248169 C-7.94060173 29.22093948 -7.94060173 29.22093948 -9.60229492 28.66845703 C-10.55029465 28.3490213 -11.49829437 28.02958557 -12.47502136 27.70046997 C-18.63461952 26.18686502 -23.49365832 27.5061149 -29.32421875 29.58984375 Z " fill="#FBFBFB" transform="translate(529.24609375,197.98046875)"/>
<path d="M0 0 C0.69910492 -0.00045319 1.39820984 -0.00090637 2.11849976 -0.00137329 C13.26066148 0.01975908 23.82270149 1.00116094 34.61962891 3.87548828 C36.21916944 4.30039869 37.83326155 4.66990686 39.44921875 5.02734375 C65.80634735 11.20290374 89.24397663 25.77483574 108.5 44.375 C109.42554688 45.23738281 110.35109375 46.09976563 111.3046875 46.98828125 C136.34538878 70.92946165 153.66279301 107.58265777 154.88523865 142.33422852 C154.9671457 146.30712134 154.96712786 150.27653114 154.9375 154.25 C154.93443344 155.49543076 154.93443344 155.49543076 154.93130493 156.76602173 C154.88195666 169.08071235 154.03514483 180.51726328 150.5 192.375 C150.17708984 193.80779297 150.17708984 193.80779297 149.84765625 195.26953125 C143.98376012 220.83305228 128.86338802 244.38697375 110.83837891 262.98974609 C109.68428424 264.18426144 108.54923142 265.39712082 107.41796875 266.61328125 C83.78200694 291.44348113 46.14587606 307.95531317 12.02172852 309.53613281 C8.0351026 309.58208815 4.04939312 309.62114683 0.0625 309.625 C-1.01704956 309.62651062 -1.01704956 309.62651062 -2.1184082 309.62805176 C-12.58146532 309.61812919 -22.31566435 309.05753311 -32.5 306.375 C-33.76457031 306.10816406 -35.02914062 305.84132813 -36.33203125 305.56640625 C-73.2123493 297.64204797 -107.49134413 272.894676 -128.13208008 241.55444336 C-143.11749898 218.1483998 -153.66051167 191.43328304 -154.5 163.375 C-154.53641602 162.60978027 -154.57283203 161.84456055 -154.61035156 161.05615234 C-156.44341592 119.93543558 -141.57765094 81.90494744 -114.5 51.375 C-113.62716048 50.32152826 -112.75733836 49.26554885 -111.890625 48.20703125 C-108.73632693 44.47032194 -105.26667771 41.4783634 -101.5 38.375 C-100.99791016 37.96056641 -100.49582031 37.54613281 -99.97851562 37.11914062 C-78.4965414 19.50137952 -54.77394605 7.81124339 -27.5 2.375 C-26.62569336 2.19549805 -25.75138672 2.01599609 -24.85058594 1.83105469 C-16.56807931 0.27477865 -8.41148233 -0.02131193 0 0 Z M-85.5 52.375 C-86.0352832 52.82955566 -86.57056641 53.28411133 -87.12207031 53.75244141 C-112.44744159 75.37618402 -129.09224849 106.21088097 -132.5 139.375 C-132.74506801 144.01291209 -132.83074218 148.63632634 -132.81567383 153.27905273 C-132.81250652 155.30832435 -132.83612655 157.33614025 -132.86132812 159.36523438 C-132.90563373 168.76383544 -131.65268441 177.24300617 -129.5 186.375 C-129.28754639 187.32785889 -129.07509277 188.28071777 -128.85620117 189.26245117 C-124.32122813 208.96830393 -113.73517958 227.31188477 -100.5 242.375 C-99.80390625 243.20386719 -99.1078125 244.03273438 -98.390625 244.88671875 C-79.396973 266.9651062 -53.65060845 280.22806201 -25.5 286.375 C-24.6538916 286.56263916 -23.8077832 286.75027832 -22.93603516 286.94360352 C9.06191087 293.45033517 44.93414829 285.77066405 72.17578125 268.03125 C80.28149432 262.53596294 87.46227276 256.15949568 94.5 249.375 C95.14324219 248.78332031 95.78648437 248.19164062 96.44921875 247.58203125 C119.70955375 225.62297373 133.0168817 192.03014627 134.0428772 160.50120544 C134.76121999 128.76795254 126.45015944 98.4104942 106.5 73.375 C105.87520752 72.58996094 105.87520752 72.58996094 105.23779297 71.7890625 C83.14355045 44.25810144 51.54763606 26.29192443 16.42529297 21.67236328 C-20.29363877 17.93979285 -57.38064027 27.98274701 -85.5 52.375 Z " fill="#FAFAFA" transform="translate(511.5,320.625)"/>
<path d="M0 0 C3.3805455 1.1709152 5.29048452 3.75737955 7.09765625 6.7265625 C7.69892883 10.25741577 7.69892883 10.25741577 7.6652832 14.20068359 C7.66601334 14.92332397 7.66674347 15.64596436 7.66749573 16.39050293 C7.66403318 18.76111924 7.62524051 21.12973029 7.5859375 23.5 C7.5766045 25.15051195 7.56949069 26.80103781 7.5644989 28.4515686 C7.5454671 32.78215207 7.4964003 37.11188842 7.440979 41.44213867 C7.38970342 45.86625714 7.3669672 50.29051337 7.34179688 54.71484375 C7.28827687 63.38580411 7.20301163 72.05607774 7.09765625 80.7265625 C7.73801315 80.71545944 8.37837006 80.70435638 9.03813171 80.69291687 C15.70521085 80.58226747 22.37202903 80.5068717 29.03979492 80.4519043 C31.52785843 80.42676579 34.01584813 80.39265003 36.50366211 80.34936523 C40.08075166 80.2886882 43.6568646 80.26034516 47.234375 80.23828125 C48.3460051 80.21247482 49.45763519 80.1866684 50.60295105 80.16007996 C58.31957119 80.15727971 58.31957119 80.15727971 62.30004883 83.06958008 C64.09765625 85.7265625 64.09765625 85.7265625 64.72265625 88.7265625 C63.87865721 92.77775791 62.27408644 94.12540527 59.09765625 96.7265625 C56.01095581 97.35475159 56.01095581 97.35475159 52.51904297 97.35766602 C50.55207962 97.37646568 50.55207962 97.37646568 48.54537964 97.39564514 C47.12269085 97.38337905 45.70001162 97.36995937 44.27734375 97.35546875 C42.81193872 97.3562978 41.34653379 97.35875856 39.88113403 97.36277771 C36.81614049 97.36563141 33.7518795 97.3509744 30.68701172 97.32348633 C26.75792205 97.28934249 22.83013662 97.29544498 18.90098381 97.3141489 C15.87774774 97.32471294 12.85481561 97.31578783 9.83160782 97.30076408 C8.3827314 97.29558138 6.93382326 97.29606518 5.48495102 97.30230904 C3.46241902 97.30775529 1.4398709 97.28455163 -0.58251953 97.26000977 C-1.73325958 97.25381119 -2.88399963 97.24761261 -4.0696106 97.2412262 C-6.90234375 96.7265625 -6.90234375 96.7265625 -8.77207947 95.22251892 C-10.40671048 91.61277221 -10.32821627 88.14612711 -10.30639648 84.2578125 C-10.31325974 83.40533936 -10.32012299 82.55286621 -10.32719421 81.67456055 C-10.34548678 78.8583915 -10.34162162 76.04277817 -10.3359375 73.2265625 C-10.34049778 71.26887836 -10.34580289 69.31119582 -10.3518219 67.35351562 C-10.36075757 63.25123591 -10.35832426 59.14915082 -10.34838867 55.046875 C-10.33689219 49.78738541 -10.35711864 44.52856651 -10.38630581 39.26916504 C-10.40464187 35.22684455 -10.40438064 31.18468561 -10.39866829 27.14233398 C-10.39851479 25.20303404 -10.40458269 23.26372334 -10.41695976 21.32446289 C-10.43182087 18.6143164 -10.42122942 15.90541959 -10.40405273 13.1953125 C-10.4137207 12.39311279 -10.42338867 11.59091309 -10.43334961 10.7644043 C-10.38661056 7.246603 -10.19300471 5.13200074 -8.11708069 2.23632812 C-5.46540255 0.42870374 -3.17742002 0.1642404 0 0 Z " fill="#F9F9F9" transform="translate(513.90234375,386.2734375)"/>
<path d="M0 0 C3.5 0.875 3.5 0.875 5.4375 2.5 C6.93727107 5.85242945 6.85826559 8.22443529 6.5 11.875 C4.53501892 14.72213745 4.53501892 14.72213745 1.74584961 17.51904297 C0.98730682 18.29357567 0.98730682 18.29357567 0.21343994 19.08375549 C-1.45660999 20.77943707 -3.15074037 22.44842421 -4.84765625 24.1171875 C-6.02025749 25.29196582 -7.1917455 26.46785628 -8.36216736 27.64480591 C-10.81689471 30.10533479 -13.28355107 32.55304112 -15.75952148 34.9921875 C-18.92701014 38.11422295 -22.06463134 41.26439155 -25.1940546 44.42452812 C-27.60832461 46.8566255 -30.03695159 49.27396227 -32.47021294 51.68704605 C-33.63264136 52.84297271 -34.79079927 54.00321083 -35.94450569 55.16784286 C-37.56219764 56.79610829 -39.19802622 58.40368651 -40.84008789 60.00732422 C-41.76608292 60.92552948 -42.69207794 61.84373474 -43.64613342 62.7897644 C-47.0478268 65.27528078 -49.31482507 65.77706547 -53.5 65.875 C-56.39013672 63.98828125 -56.39013672 63.98828125 -59.1796875 61.1875 C-59.92703659 60.4445166 -59.92703659 60.4445166 -60.68948364 59.68652344 C-61.7359783 58.63671728 -62.7726277 57.57701565 -63.79980469 56.50830078 C-65.36725331 54.88303244 -66.96856657 53.29829857 -68.578125 51.71484375 C-77.3622286 42.8227609 -77.3622286 42.8227609 -77.5 35.875 C-75.21150849 32.6156333 -73.72491291 31.14700533 -69.80859375 30.27734375 C-64.64595797 31.2099096 -62.10498728 34.63199043 -58.625 38.375 C-57.93664062 39.09042969 -57.24828125 39.80585937 -56.5390625 40.54296875 C-54.84505484 42.30756007 -53.16661507 44.08457924 -51.5 45.875 C-47.32741081 44.23812397 -44.53574927 41.18169032 -41.44921875 38.0546875 C-40.58367119 37.18845261 -40.58367119 37.18845261 -39.70063782 36.30471802 C-38.48042338 35.08148633 -37.26263649 33.85582895 -36.04711914 32.62792969 C-34.2095724 30.77228973 -32.36431462 28.92461463 -30.51757812 27.078125 C-25.11672997 21.6606101 -19.77885444 16.23914527 -14.8137207 10.41357422 C-13.20349966 8.52775132 -11.50731211 6.74894395 -9.75 5 C-9.19828125 4.44570313 -8.6465625 3.89140625 -8.078125 3.3203125 C-5.20304207 0.68719199 -3.97455401 -0.14194836 0 0 Z " fill="#0AAB7E" transform="translate(556.5,675.125)"/>
<path d="M0 0 C0.66 0 1.32 0 2 0 C2.51046875 1.17755859 2.51046875 1.17755859 3.03125 2.37890625 C8.05320028 13.26425062 13.78827324 18.82155554 25 23 C25 23.66 25 24.32 25 25 C24.21496094 25.3403125 23.42992187 25.680625 22.62109375 26.03125 C11.73574938 31.05320028 6.17844446 36.78827324 2 48 C1.34 48 0.68 48 0 48 C-0.3403125 47.21496094 -0.680625 46.42992187 -1.03125 45.62109375 C-6.05320028 34.73574938 -11.78827324 29.17844446 -23 25 C-23 24.34 -23 23.68 -23 23 C-22.21496094 22.6596875 -21.42992187 22.319375 -20.62109375 21.96875 C-9.73574938 16.94679972 -4.17844446 11.21172676 0 0 Z " fill="#7D7D7D" transform="translate(967,944)"/>
<path d="M0 0 C0.89589844 0.01417969 1.79179687 0.02835937 2.71484375 0.04296875 C4.06255859 0.05263672 4.06255859 0.05263672 5.4375 0.0625 C7.65234375 0.23046875 7.65234375 0.23046875 8.65234375 1.23046875 C8.80547647 3.72476525 8.88390892 6.17235368 8.90234375 8.66796875 C8.92296875 9.36212891 8.94359375 10.05628906 8.96484375 10.77148438 C8.98046875 12.7890625 8.98046875 12.7890625 8.65234375 16.23046875 C5.16365724 18.55625976 3.75515856 18.64912332 -0.34765625 18.23046875 C-2.515625 17.12109375 -2.515625 17.12109375 -4.34765625 15.23046875 C-4.80859375 12.1640625 -4.80859375 12.1640625 -4.72265625 8.66796875 C-4.70976562 7.51167969 -4.696875 6.35539062 -4.68359375 5.1640625 C-4.27247013 1.57390155 -3.70247517 0.36347094 0 0 Z " fill="#EDEEED" transform="translate(509.34765625,350.76953125)"/>
<path d="M0 0 C3.1875 -0.328125 3.1875 -0.328125 7 -0.25 C8.258125 -0.23453125 9.51625 -0.2190625 10.8125 -0.203125 C14 0 14 0 16 1 C16.05395478 2.62463842 16.09277195 4.24978541 16.125 5.875 C16.14820313 6.77992188 16.17140625 7.68484375 16.1953125 8.6171875 C16 11 16 11 14 13 C11.06640625 13.3359375 11.06640625 13.3359375 7.5625 13.375 C6.40878906 13.40335937 5.25507812 13.43171875 4.06640625 13.4609375 C1 13 1 13 -0.890625 11.16796875 C-2.3742928 8.26854752 -2.34202787 6.21506202 -2 3 C-1.34 2.01 -0.68 1.02 0 0 Z " fill="#EEEFEF" transform="translate(620,469)"/>
<path d="M0 0 C6.16529701 0.31616908 10.17268433 3.49215061 15 7 C14.29795092 11.39704421 12.96828429 13.64871128 10 17 C3.94462479 16.69723124 0.48516542 13.72245962 -4 10 C-3.5205537 5.78087253 -2.83374881 3.20336822 0 0 Z " fill="#F3F3F3" transform="translate(607,524)"/>
<path d="M0 0 C0.89589844 0.01417969 1.79179687 0.02835938 2.71484375 0.04296875 C4.06255859 0.05263672 4.06255859 0.05263672 5.4375 0.0625 C7.65234375 0.23046875 7.65234375 0.23046875 8.65234375 1.23046875 C8.75209407 3.74182979 8.79116558 6.2195029 8.77734375 8.73046875 C8.78121094 9.43300781 8.78507813 10.13554688 8.7890625 10.859375 C8.77895753 16.10385497 8.77895753 16.10385497 7.65234375 17.23046875 C6.01004011 17.35501735 4.36182099 17.40615399 2.71484375 17.41796875 C1.81894531 17.43214844 0.92304688 17.44632813 0 17.4609375 C-2.34765625 17.23046875 -2.34765625 17.23046875 -4.34765625 15.23046875 C-4.61328125 12.26171875 -4.61328125 12.26171875 -4.59765625 8.73046875 C-4.6028125 7.56515625 -4.60796875 6.39984375 -4.61328125 5.19921875 C-4.28871976 1.57176681 -3.73151615 0.36632188 0 0 Z " fill="#F1F2F0" transform="translate(509.34765625,582.76953125)"/>
<path d="M0 0 C1.26714844 -0.01417969 2.53429687 -0.02835937 3.83984375 -0.04296875 C7.0625 0.1875 7.0625 0.1875 9.0625 2.1875 C9.328125 4.28125 9.328125 4.28125 9.3125 6.6875 C9.31765625 7.4815625 9.3228125 8.275625 9.328125 9.09375 C9.0625 11.1875 9.0625 11.1875 7.0625 13.1875 C3.83984375 13.41796875 3.83984375 13.41796875 0 13.375 C-1.26972656 13.36855469 -2.53945313 13.36210937 -3.84765625 13.35546875 C-6.9375 13.1875 -6.9375 13.1875 -7.9375 12.1875 C-8.03601171 10.35634117 -8.06722629 8.52130067 -8.0625 6.6875 C-8.06507813 5.6871875 -8.06765625 4.686875 -8.0703125 3.65625 C-7.80083253 -1.35290712 -4.27444684 0.0216977 0 0 Z " fill="#F4F5F5" transform="translate(395.9375,468.8125)"/>
<path d="M0 0 C3.51445522 0.87861381 5.38187683 2.28588408 8 4.75 C7.57202798 10.45629354 5.15654048 14.16078616 2 18.75 C-2.87362847 18.29663921 -5.39042389 17.0410841 -9 13.75 C-8.46664778 8.06090962 -5.84104868 1.46026217 0 0 Z " fill="#F4F4F3" transform="translate(454,566.25)"/>
<path d="M0 0 C2.4375 2.75 2.4375 2.75 4 6 C3.80498846 8.85274031 3.24917763 9.7755342 1.109375 11.703125 C0.33078125 12.21359375 -0.4478125 12.7240625 -1.25 13.25 C-2.01828125 13.77078125 -2.7865625 14.2915625 -3.578125 14.828125 C-6.2760471 16.13357118 -8.04150297 16.23080473 -11 16 C-15.04505155 9.62597938 -15.04505155 9.62597938 -14.8515625 6.9375 C-12.56085912 1.72562442 -5.3193729 -1.32984323 0 0 Z " fill="#F5F5F5" transform="translate(417,525)"/>
<path d="M0 0 C4.05852231 4.80614484 4.05852231 4.80614484 3.90234375 7.9921875 C2.61751637 10.85106748 0.86235022 11.73422088 -1.8125 13.3125 C-2.68519531 13.84488281 -3.55789063 14.37726563 -4.45703125 14.92578125 C-7 16 -7 16 -9.1796875 15.84375 C-12.30509217 14.39506457 -13.43358117 11.95879111 -15 9 C-14.8152093 6.14414377 -14.22982374 5.21130488 -12.109375 3.26171875 C-11.33078125 2.74222656 -10.5521875 2.22273438 -9.75 1.6875 C-8.98171875 1.15511719 -8.2134375 0.62273437 -7.421875 0.07421875 C-4.42565877 -1.25474813 -3.05833966 -1.09734446 0 0 Z " fill="#F3F4F4" transform="translate(618,411)"/>
<path d="M0 0 C5.70629354 0.42797202 9.41078616 2.84345952 14 6 C13.56179109 10.55737263 13.14958831 13.57653445 10 17 C6.00987629 16.44010697 3.4744948 15.24330232 0.1875 12.9375 C-0.60269531 12.38964844 -1.39289063 11.84179688 -2.20703125 11.27734375 C-2.79871094 10.85582031 -3.39039063 10.43429687 -4 10 C-3.5205537 5.78087253 -2.83374881 3.20336822 0 0 Z " fill="#F4F5F5" transform="translate(406,410)"/>
<path d="M0 0 C2.125 2.1875 2.125 2.1875 4 5 C4.8971875 6.2684375 4.8971875 6.2684375 5.8125 7.5625 C7 10 7 10 7.125 12.0625 C5.32541796 15.16178018 2.36571725 16.86415753 -1 18 C-3.0546875 17.87109375 -3.0546875 17.87109375 -5 17 C-6.51953125 15.109375 -6.51953125 15.109375 -7.8125 12.75 C-8.25207031 11.98171875 -8.69164062 11.2134375 -9.14453125 10.421875 C-10.18059803 7.48871792 -9.94518801 5.93453661 -9 3 C-6.2199164 0.1206277 -3.95762535 -0.79152507 0 0 Z " fill="#F6F6F6" transform="translate(572,567)"/>
<path d="M0 0 C4.21912747 0.4794463 6.79663178 1.16625119 10 4 C9.57202798 9.70629354 7.15654048 13.41078616 4 18 C-2.625 17.25 -2.625 17.25 -6 15 C-6.74336624 11.61355378 -6.3472769 9.61704562 -4.65234375 6.60546875 C-3.15532691 4.35817397 -1.6153797 2.16345496 0 0 Z " fill="#F5F5F4" transform="translate(568,366)"/>
<path d="M0 0 C3.14354203 1.10247446 3.79847629 2.2112723 5.34765625 5.1171875 C5.77820313 5.88546875 6.20875 6.65375 6.65234375 7.4453125 C7.64314296 10.3705292 7.40709052 11.95076895 6.47265625 14.8671875 C4.35038513 17.06525402 3.06895255 17.78487373 0.0390625 18.203125 C-2.52734375 17.8671875 -2.52734375 17.8671875 -4.328125 16.07421875 C-5.07642578 14.88892578 -5.07642578 14.88892578 -5.83984375 13.6796875 C-6.35160156 12.90238281 -6.86335938 12.12507813 -7.390625 11.32421875 C-8.67210561 8.554283 -8.95870625 6.88170916 -8.52734375 3.8671875 C-5.68118091 1.35197383 -3.88605307 -0.20421299 0 0 Z " fill="#F7F7F6" transform="translate(454.52734375,366.1328125)"/>
</svg>
